<svg id="visual" viewBox="0 0 960 300" width="960" height="300" xmlns="http://www.w3.org/2000/svg" xmlns:xlink="http://www.w3.org/1999/xlink" version="1.1"><rect x="0" y="0" width="960" height="300" fill="#001220"></rect><g transform="translate(497.5680766911354 149.16270089611925)"><path d="M78.7 -94.3C103.8 -72.7 127.2 -49.6 130.8 -23.9C134.3 1.8 117.9 30.2 102.3 60.8C86.7 91.4 71.9 124.2 46.3 138.3C20.6 152.5 -15.8 148.2 -48.7 135.5C-81.7 122.8 -111 101.9 -133 72.5C-155.1 43.1 -169.9 5.3 -165.7 -31.1C-161.5 -67.4 -138.3 -102.3 -107.5 -122.8C-76.7 -143.4 -38.4 -149.7 -5.8 -142.8C26.8 -135.9 53.6 -115.8 78.7 -94.3" fill="#5213b1"></path></g></svg>