<svg id="visual" viewBox="0 0 960 300" width="960" height="300" xmlns="http://www.w3.org/2000/svg" xmlns:xlink="http://www.w3.org/1999/xlink" version="1.1"><rect x="0" y="0" width="960" height="300" fill="#001220"></rect><g transform="translate(467.8879178275882 142.96134632061438)"><path d="M102.9 -117.3C129.5 -100.3 144.5 -64.2 142.3 -31.7C140.2 0.8 120.8 29.7 102.5 57.1C84.2 84.5 66.9 110.4 39.9 128.2C13 146 -23.6 155.7 -49.3 143C-75.1 130.4 -89.9 95.5 -99.8 64.4C-109.6 33.3 -114.4 6.2 -117 -27.9C-119.6 -61.9 -120.1 -102.8 -100.2 -120.9C-80.3 -139.1 -40.2 -134.5 -1 -133.3C38.1 -132.1 76.3 -134.2 102.9 -117.3" fill="#5213b1"></path></g></svg>