<svg id="visual" viewBox="0 0 900 220" width="900" height="220" xmlns="http://www.w3.org/2000/svg" xmlns:xlink="http://www.w3.org/1999/xlink" version="1.1"><rect x="0" y="0" width="900" height="220" fill="#001220"></rect><path d="M0 55L47 69L95 65L142 84L189 67L237 81L284 64L332 46L379 65L426 79L474 99L521 40L568 30L616 77L663 92L711 37L758 78L805 45L853 37L900 26L900 221L853 221L805 221L758 221L711 221L663 221L616 221L568 221L521 221L474 221L426 221L379 221L332 221L284 221L237 221L189 221L142 221L95 221L47 221L0 221Z" fill="#d9c5f7"></path><path d="M0 112L47 70L95 48L142 70L189 101L237 88L284 42L332 76L379 84L426 81L474 50L521 107L568 64L616 87L663 50L711 76L758 68L805 56L853 72L900 71L900 221L853 221L805 221L758 221L711 221L663 221L616 221L568 221L521 221L474 221L426 221L379 221L332 221L284 221L237 221L189 221L142 221L95 221L47 221L0 221Z" fill="#c4b5e7"></path><path d="M0 64L47 65L95 123L142 81L189 97L237 96L284 86L332 95L379 88L426 84L474 117L521 102L568 120L616 96L663 121L711 65L758 67L805 61L853 103L900 83L900 221L853 221L805 221L758 221L711 221L663 221L616 221L568 221L521 221L474 221L426 221L379 221L332 221L284 221L237 221L189 221L142 221L95 221L47 221L0 221Z" fill="#b0a6d7"></path><path d="M0 98L47 132L95 134L142 88L189 104L237 105L284 96L332 83L379 128L426 79L474 113L521 112L568 119L616 101L663 93L711 111L758 102L805 110L853 93L900 112L900 221L853 221L805 221L758 221L711 221L663 221L616 221L568 221L521 221L474 221L426 221L379 221L332 221L284 221L237 221L189 221L142 221L95 221L47 221L0 221Z" fill="#9c97c7"></path><path d="M0 141L47 99L95 142L142 132L189 119L237 99L284 141L332 134L379 123L426 115L474 96L521 135L568 136L616 135L663 135L711 91L758 110L805 144L853 100L900 111L900 221L853 221L805 221L758 221L711 221L663 221L616 221L568 221L521 221L474 221L426 221L379 221L332 221L284 221L237 221L189 221L142 221L95 221L47 221L0 221Z" fill="#8888b8"></path><path d="M0 138L47 132L95 113L142 139L189 112L237 114L284 110L332 121L379 144L426 140L474 155L521 124L568 136L616 112L663 112L711 150L758 144L805 109L853 131L900 121L900 221L853 221L805 221L758 221L711 221L663 221L616 221L568 221L521 221L474 221L426 221L379 221L332 221L284 221L237 221L189 221L142 221L95 221L47 221L0 221Z" fill="#7579a8"></path><path d="M0 139L47 152L95 142L142 131L189 156L237 140L284 129L332 131L379 126L426 161L474 132L521 150L568 150L616 165L663 126L711 166L758 167L805 148L853 154L900 148L900 221L853 221L805 221L758 221L711 221L663 221L616 221L568 221L521 221L474 221L426 221L379 221L332 221L284 221L237 221L189 221L142 221L95 221L47 221L0 221Z" fill="#626b99"></path><path d="M0 145L47 155L95 153L142 148L189 149L237 173L284 169L332 158L379 148L426 146L474 173L521 174L568 174L616 147L663 171L711 174L758 149L805 160L853 159L900 171L900 221L853 221L805 221L758 221L711 221L663 221L616 221L568 221L521 221L474 221L426 221L379 221L332 221L284 221L237 221L189 221L142 221L95 221L47 221L0 221Z" fill="#4e5d89"></path><path d="M0 179L47 168L95 174L142 189L189 161L237 165L284 184L332 185L379 188L426 188L474 178L521 158L568 157L616 164L663 173L711 161L758 162L805 188L853 159L900 165L900 221L853 221L805 221L758 221L711 221L663 221L616 221L568 221L521 221L474 221L426 221L379 221L332 221L284 221L237 221L189 221L142 221L95 221L47 221L0 221Z" fill="#3b4f7a"></path><path d="M0 197L47 199L95 181L142 181L189 176L237 188L284 195L332 197L379 177L426 182L474 186L521 189L568 187L616 196L663 174L711 188L758 193L805 181L853 181L900 180L900 221L853 221L805 221L758 221L711 221L663 221L616 221L568 221L521 221L474 221L426 221L379 221L332 221L284 221L237 221L189 221L142 221L95 221L47 221L0 221Z" fill="#26426c"></path><path d="M0 198L47 205L95 206L142 200L189 191L237 198L284 200L332 197L379 208L426 200L474 196L521 193L568 193L616 194L663 201L711 202L758 194L805 210L853 201L900 199L900 221L853 221L805 221L758 221L711 221L663 221L616 221L568 221L521 221L474 221L426 221L379 221L332 221L284 221L237 221L189 221L142 221L95 221L47 221L0 221Z" fill="#0c355d"></path></svg>