<svg id="visual" viewBox="0 0 960 540" width="960" height="540" xmlns="http://www.w3.org/2000/svg" xmlns:xlink="http://www.w3.org/1999/xlink" version="1.1"><rect x="0" y="0" width="960" height="540" fill="#001220"></rect><path d="M596 540L577.8 528.8C559.7 517.7 523.3 495.3 513.2 472.8C503 450.3 519 427.7 520.2 405.2C521.3 382.7 507.7 360.3 504.5 337.8C501.3 315.3 508.7 292.7 528.3 270.2C548 247.7 580 225.3 592 202.8C604 180.3 596 157.7 593.8 135.2C591.7 112.7 595.3 90.3 588.3 67.8C581.3 45.3 563.7 22.7 554.8 11.3L546 0L960 0L960 11.3C960 22.7 960 45.3 960 67.8C960 90.3 960 112.7 960 135.2C960 157.7 960 180.3 960 202.8C960 225.3 960 247.7 960 270.2C960 292.7 960 315.3 960 337.8C960 360.3 960 382.7 960 405.2C960 427.7 960 450.3 960 472.8C960 495.3 960 517.7 960 528.8L960 540Z" fill="#0c355d"></path><path d="M563 540L575.5 528.8C588 517.7 613 495.3 630 472.8C647 450.3 656 427.7 659.5 405.2C663 382.7 661 360.3 658.2 337.8C655.3 315.3 651.7 292.7 648.8 270.2C646 247.7 644 225.3 644.3 202.8C644.7 180.3 647.3 157.7 652.2 135.2C657 112.7 664 90.3 649 67.8C634 45.3 597 22.7 578.5 11.3L560 0L960 0L960 11.3C960 22.7 960 45.3 960 67.8C960 90.3 960 112.7 960 135.2C960 157.7 960 180.3 960 202.8C960 225.3 960 247.7 960 270.2C960 292.7 960 315.3 960 337.8C960 360.3 960 382.7 960 405.2C960 427.7 960 450.3 960 472.8C960 495.3 960 517.7 960 528.8L960 540Z" fill="#29436d"></path><path d="M610 540L604.5 528.8C599 517.7 588 495.3 583.2 472.8C578.3 450.3 579.7 427.7 581 405.2C582.3 382.7 583.7 360.3 583.2 337.8C582.7 315.3 580.3 292.7 594.5 270.2C608.7 247.7 639.3 225.3 658.2 202.8C677 180.3 684 157.7 669.2 135.2C654.3 112.7 617.7 90.3 611.2 67.8C604.7 45.3 628.3 22.7 640.2 11.3L652 0L960 0L960 11.3C960 22.7 960 45.3 960 67.8C960 90.3 960 112.7 960 135.2C960 157.7 960 180.3 960 202.8C960 225.3 960 247.7 960 270.2C960 292.7 960 315.3 960 337.8C960 360.3 960 382.7 960 405.2C960 427.7 960 450.3 960 472.8C960 495.3 960 517.7 960 528.8L960 540Z" fill="#3f527e"></path><path d="M704 540L688.3 528.8C672.7 517.7 641.3 495.3 630.2 472.8C619 450.3 628 427.7 647.5 405.2C667 382.7 697 360.3 710 337.8C723 315.3 719 292.7 720.3 270.2C721.7 247.7 728.3 225.3 711 202.8C693.7 180.3 652.3 157.7 635.5 135.2C618.7 112.7 626.3 90.3 635.7 67.8C645 45.3 656 22.7 661.5 11.3L667 0L960 0L960 11.3C960 22.7 960 45.3 960 67.8C960 90.3 960 112.7 960 135.2C960 157.7 960 180.3 960 202.8C960 225.3 960 247.7 960 270.2C960 292.7 960 315.3 960 337.8C960 360.3 960 382.7 960 405.2C960 427.7 960 450.3 960 472.8C960 495.3 960 517.7 960 528.8L960 540Z" fill="#55618f"></path><path d="M671 540L670.3 528.8C669.7 517.7 668.3 495.3 679.5 472.8C690.7 450.3 714.3 427.7 712.8 405.2C711.3 382.7 684.7 360.3 683.8 337.8C683 315.3 708 292.7 726.3 270.2C744.7 247.7 756.3 225.3 752.7 202.8C749 180.3 730 157.7 728.2 135.2C726.3 112.7 741.7 90.3 748.2 67.8C754.7 45.3 752.3 22.7 751.2 11.3L750 0L960 0L960 11.3C960 22.7 960 45.3 960 67.8C960 90.3 960 112.7 960 135.2C960 157.7 960 180.3 960 202.8C960 225.3 960 247.7 960 270.2C960 292.7 960 315.3 960 337.8C960 360.3 960 382.7 960 405.2C960 427.7 960 450.3 960 472.8C960 495.3 960 517.7 960 528.8L960 540Z" fill="#6a719f"></path><path d="M796 540L784.7 528.8C773.3 517.7 750.7 495.3 739.3 472.8C728 450.3 728 427.7 739.3 405.2C750.7 382.7 773.3 360.3 780 337.8C786.7 315.3 777.3 292.7 766.8 270.2C756.3 247.7 744.7 225.3 737.2 202.8C729.7 180.3 726.3 157.7 731.3 135.2C736.3 112.7 749.7 90.3 750.7 67.8C751.7 45.3 740.3 22.7 734.7 11.3L729 0L960 0L960 11.3C960 22.7 960 45.3 960 67.8C960 90.3 960 112.7 960 135.2C960 157.7 960 180.3 960 202.8C960 225.3 960 247.7 960 270.2C960 292.7 960 315.3 960 337.8C960 360.3 960 382.7 960 405.2C960 427.7 960 450.3 960 472.8C960 495.3 960 517.7 960 528.8L960 540Z" fill="#8081b1"></path><path d="M794 540L792.7 528.8C791.3 517.7 788.7 495.3 784.2 472.8C779.7 450.3 773.3 427.7 775.7 405.2C778 382.7 789 360.3 795.7 337.8C802.3 315.3 804.7 292.7 804.3 270.2C804 247.7 801 225.3 801.7 202.8C802.3 180.3 806.7 157.7 800 135.2C793.3 112.7 775.7 90.3 765.2 67.8C754.7 45.3 751.3 22.7 749.7 11.3L748 0L960 0L960 11.3C960 22.7 960 45.3 960 67.8C960 90.3 960 112.7 960 135.2C960 157.7 960 180.3 960 202.8C960 225.3 960 247.7 960 270.2C960 292.7 960 315.3 960 337.8C960 360.3 960 382.7 960 405.2C960 427.7 960 450.3 960 472.8C960 495.3 960 517.7 960 528.8L960 540Z" fill="#9692c2"></path><path d="M822 540L827.2 528.8C832.3 517.7 842.7 495.3 848.7 472.8C854.7 450.3 856.3 427.7 856.2 405.2C856 382.7 854 360.3 853 337.8C852 315.3 852 292.7 843.8 270.2C835.7 247.7 819.3 225.3 815.8 202.8C812.3 180.3 821.7 157.7 830.7 135.2C839.7 112.7 848.3 90.3 853.7 67.8C859 45.3 861 22.7 862 11.3L863 0L960 0L960 11.3C960 22.7 960 45.3 960 67.8C960 90.3 960 112.7 960 135.2C960 157.7 960 180.3 960 202.8C960 225.3 960 247.7 960 270.2C960 292.7 960 315.3 960 337.8C960 360.3 960 382.7 960 405.2C960 427.7 960 450.3 960 472.8C960 495.3 960 517.7 960 528.8L960 540Z" fill="#aca2d4"></path><path d="M851 540L858.5 528.8C866 517.7 881 495.3 882.8 472.8C884.7 450.3 873.3 427.7 869 405.2C864.7 382.7 867.3 360.3 870.5 337.8C873.7 315.3 877.3 292.7 881.3 270.2C885.3 247.7 889.7 225.3 886.7 202.8C883.7 180.3 873.3 157.7 866.7 135.2C860 112.7 857 90.3 855.8 67.8C854.7 45.3 855.3 22.7 855.7 11.3L856 0L960 0L960 11.3C960 22.7 960 45.3 960 67.8C960 90.3 960 112.7 960 135.2C960 157.7 960 180.3 960 202.8C960 225.3 960 247.7 960 270.2C960 292.7 960 315.3 960 337.8C960 360.3 960 382.7 960 405.2C960 427.7 960 450.3 960 472.8C960 495.3 960 517.7 960 528.8L960 540Z" fill="#c2b3e5"></path><path d="M892 540L894.7 528.8C897.3 517.7 902.7 495.3 902.8 472.8C903 450.3 898 427.7 899.7 405.2C901.3 382.7 909.7 360.3 916.2 337.8C922.7 315.3 927.3 292.7 924.7 270.2C922 247.7 912 225.3 908.3 202.8C904.7 180.3 907.3 157.7 906.2 135.2C905 112.7 900 90.3 901.2 67.8C902.3 45.3 909.7 22.7 913.3 11.3L917 0L960 0L960 11.3C960 22.7 960 45.3 960 67.8C960 90.3 960 112.7 960 135.2C960 157.7 960 180.3 960 202.8C960 225.3 960 247.7 960 270.2C960 292.7 960 315.3 960 337.8C960 360.3 960 382.7 960 405.2C960 427.7 960 450.3 960 472.8C960 495.3 960 517.7 960 528.8L960 540Z" fill="#d9c5f7"></path></svg>