<svg id="visual" viewBox="0 0 960 540" width="960" height="540" xmlns="http://www.w3.org/2000/svg" xmlns:xlink="http://www.w3.org/1999/xlink" version="1.1"><rect x="0" y="0" width="960" height="540" fill="#001220"></rect><path d="M551 540L548.7 528.8C546.3 517.7 541.7 495.3 545.7 472.8C549.7 450.3 562.3 427.7 563.7 405.2C565 382.7 555 360.3 543.5 337.8C532 315.3 519 292.7 512.2 270.2C505.3 247.7 504.7 225.3 507.7 202.8C510.7 180.3 517.3 157.7 537.2 135.2C557 112.7 590 90.3 581.3 67.8C572.7 45.3 522.3 22.7 497.2 11.3L472 0L960 0L960 11.3C960 22.7 960 45.3 960 67.8C960 90.3 960 112.7 960 135.2C960 157.7 960 180.3 960 202.8C960 225.3 960 247.7 960 270.2C960 292.7 960 315.3 960 337.8C960 360.3 960 382.7 960 405.2C960 427.7 960 450.3 960 472.8C960 495.3 960 517.7 960 528.8L960 540Z" fill="#0c355d"></path><path d="M627 540L612.5 528.8C598 517.7 569 495.3 559.2 472.8C549.3 450.3 558.7 427.7 563.5 405.2C568.3 382.7 568.7 360.3 561.5 337.8C554.3 315.3 539.7 292.7 537.2 270.2C534.7 247.7 544.3 225.3 557.7 202.8C571 180.3 588 157.7 599.7 135.2C611.3 112.7 617.7 90.3 628 67.8C638.3 45.3 652.7 22.7 659.8 11.3L667 0L960 0L960 11.3C960 22.7 960 45.3 960 67.8C960 90.3 960 112.7 960 135.2C960 157.7 960 180.3 960 202.8C960 225.3 960 247.7 960 270.2C960 292.7 960 315.3 960 337.8C960 360.3 960 382.7 960 405.2C960 427.7 960 450.3 960 472.8C960 495.3 960 517.7 960 528.8L960 540Z" fill="#29436d"></path><path d="M620 540L633.8 528.8C647.7 517.7 675.3 495.3 668.7 472.8C662 450.3 621 427.7 606.8 405.2C592.7 382.7 605.3 360.3 620.3 337.8C635.3 315.3 652.7 292.7 666 270.2C679.3 247.7 688.7 225.3 684.8 202.8C681 180.3 664 157.7 656.5 135.2C649 112.7 651 90.3 645.2 67.8C639.3 45.3 625.7 22.7 618.8 11.3L612 0L960 0L960 11.3C960 22.7 960 45.3 960 67.8C960 90.3 960 112.7 960 135.2C960 157.7 960 180.3 960 202.8C960 225.3 960 247.7 960 270.2C960 292.7 960 315.3 960 337.8C960 360.3 960 382.7 960 405.2C960 427.7 960 450.3 960 472.8C960 495.3 960 517.7 960 528.8L960 540Z" fill="#3f527e"></path><path d="M664 540L663.8 528.8C663.7 517.7 663.3 495.3 659.3 472.8C655.3 450.3 647.7 427.7 659 405.2C670.3 382.7 700.7 360.3 695.5 337.8C690.3 315.3 649.7 292.7 641.3 270.2C633 247.7 657 225.3 674 202.8C691 180.3 701 157.7 706.5 135.2C712 112.7 713 90.3 705.8 67.8C698.7 45.3 683.3 22.7 675.7 11.3L668 0L960 0L960 11.3C960 22.7 960 45.3 960 67.8C960 90.3 960 112.7 960 135.2C960 157.7 960 180.3 960 202.8C960 225.3 960 247.7 960 270.2C960 292.7 960 315.3 960 337.8C960 360.3 960 382.7 960 405.2C960 427.7 960 450.3 960 472.8C960 495.3 960 517.7 960 528.8L960 540Z" fill="#55618f"></path><path d="M739 540L731.7 528.8C724.3 517.7 709.7 495.3 707.5 472.8C705.3 450.3 715.7 427.7 712.3 405.2C709 382.7 692 360.3 690.3 337.8C688.7 315.3 702.3 292.7 713.5 270.2C724.7 247.7 733.3 225.3 733.5 202.8C733.7 180.3 725.3 157.7 713.3 135.2C701.3 112.7 685.7 90.3 680.7 67.8C675.7 45.3 681.3 22.7 684.2 11.3L687 0L960 0L960 11.3C960 22.7 960 45.3 960 67.8C960 90.3 960 112.7 960 135.2C960 157.7 960 180.3 960 202.8C960 225.3 960 247.7 960 270.2C960 292.7 960 315.3 960 337.8C960 360.3 960 382.7 960 405.2C960 427.7 960 450.3 960 472.8C960 495.3 960 517.7 960 528.8L960 540Z" fill="#6a719f"></path><path d="M787 540L778 528.8C769 517.7 751 495.3 738 472.8C725 450.3 717 427.7 713.5 405.2C710 382.7 711 360.3 710.5 337.8C710 315.3 708 292.7 715.5 270.2C723 247.7 740 225.3 739 202.8C738 180.3 719 157.7 720.3 135.2C721.7 112.7 743.3 90.3 754.7 67.8C766 45.3 767 22.7 767.5 11.3L768 0L960 0L960 11.3C960 22.7 960 45.3 960 67.8C960 90.3 960 112.7 960 135.2C960 157.7 960 180.3 960 202.8C960 225.3 960 247.7 960 270.2C960 292.7 960 315.3 960 337.8C960 360.3 960 382.7 960 405.2C960 427.7 960 450.3 960 472.8C960 495.3 960 517.7 960 528.8L960 540Z" fill="#8081b1"></path><path d="M759 540L761.8 528.8C764.7 517.7 770.3 495.3 779.8 472.8C789.3 450.3 802.7 427.7 798.8 405.2C795 382.7 774 360.3 775.7 337.8C777.3 315.3 801.7 292.7 805.3 270.2C809 247.7 792 225.3 790.3 202.8C788.7 180.3 802.3 157.7 798.2 135.2C794 112.7 772 90.3 770.2 67.8C768.3 45.3 786.7 22.7 795.8 11.3L805 0L960 0L960 11.3C960 22.7 960 45.3 960 67.8C960 90.3 960 112.7 960 135.2C960 157.7 960 180.3 960 202.8C960 225.3 960 247.7 960 270.2C960 292.7 960 315.3 960 337.8C960 360.3 960 382.7 960 405.2C960 427.7 960 450.3 960 472.8C960 495.3 960 517.7 960 528.8L960 540Z" fill="#9692c2"></path><path d="M834 540L838.7 528.8C843.3 517.7 852.7 495.3 857.8 472.8C863 450.3 864 427.7 854.8 405.2C845.7 382.7 826.3 360.3 815.3 337.8C804.3 315.3 801.7 292.7 801.5 270.2C801.3 247.7 803.7 225.3 810.5 202.8C817.3 180.3 828.7 157.7 837.5 135.2C846.3 112.7 852.7 90.3 857.3 67.8C862 45.3 865 22.7 866.5 11.3L868 0L960 0L960 11.3C960 22.7 960 45.3 960 67.8C960 90.3 960 112.7 960 135.2C960 157.7 960 180.3 960 202.8C960 225.3 960 247.7 960 270.2C960 292.7 960 315.3 960 337.8C960 360.3 960 382.7 960 405.2C960 427.7 960 450.3 960 472.8C960 495.3 960 517.7 960 528.8L960 540Z" fill="#aca2d4"></path><path d="M842 540L850.3 528.8C858.7 517.7 875.3 495.3 874.7 472.8C874 450.3 856 427.7 852 405.2C848 382.7 858 360.3 864.3 337.8C870.7 315.3 873.3 292.7 877 270.2C880.7 247.7 885.3 225.3 880 202.8C874.7 180.3 859.3 157.7 853.7 135.2C848 112.7 852 90.3 860 67.8C868 45.3 880 22.7 886 11.3L892 0L960 0L960 11.3C960 22.7 960 45.3 960 67.8C960 90.3 960 112.7 960 135.2C960 157.7 960 180.3 960 202.8C960 225.3 960 247.7 960 270.2C960 292.7 960 315.3 960 337.8C960 360.3 960 382.7 960 405.2C960 427.7 960 450.3 960 472.8C960 495.3 960 517.7 960 528.8L960 540Z" fill="#c2b3e5"></path><path d="M894 540L898.7 528.8C903.3 517.7 912.7 495.3 911.7 472.8C910.7 450.3 899.3 427.7 898.2 405.2C897 382.7 906 360.3 907 337.8C908 315.3 901 292.7 899.7 270.2C898.3 247.7 902.7 225.3 906.7 202.8C910.7 180.3 914.3 157.7 914.2 135.2C914 112.7 910 90.3 905.5 67.8C901 45.3 896 22.7 893.5 11.3L891 0L960 0L960 11.3C960 22.7 960 45.3 960 67.8C960 90.3 960 112.7 960 135.2C960 157.7 960 180.3 960 202.8C960 225.3 960 247.7 960 270.2C960 292.7 960 315.3 960 337.8C960 360.3 960 382.7 960 405.2C960 427.7 960 450.3 960 472.8C960 495.3 960 517.7 960 528.8L960 540Z" fill="#d9c5f7"></path></svg>