<svg id="visual" viewBox="0 0 960 540" width="960" height="540" xmlns="http://www.w3.org/2000/svg" xmlns:xlink="http://www.w3.org/1999/xlink" version="1.1"><rect x="0" y="0" width="960" height="540" fill="#001220"></rect><path d="M507 540L501.2 528.8C495.3 517.7 483.7 495.3 484.5 472.8C485.3 450.3 498.7 427.7 516.5 405.2C534.3 382.7 556.7 360.3 576.3 337.8C596 315.3 613 292.7 616.8 270.2C620.7 247.7 611.3 225.3 592.8 202.8C574.3 180.3 546.7 157.7 534.3 135.2C522 112.7 525 90.3 542.8 67.8C560.7 45.3 593.3 22.7 609.7 11.3L626 0L960 0L960 11.3C960 22.7 960 45.3 960 67.8C960 90.3 960 112.7 960 135.2C960 157.7 960 180.3 960 202.8C960 225.3 960 247.7 960 270.2C960 292.7 960 315.3 960 337.8C960 360.3 960 382.7 960 405.2C960 427.7 960 450.3 960 472.8C960 495.3 960 517.7 960 528.8L960 540Z" fill="#0c355d"></path><path d="M613 540L605 528.8C597 517.7 581 495.3 577.2 472.8C573.3 450.3 581.7 427.7 579.5 405.2C577.3 382.7 564.7 360.3 575.5 337.8C586.3 315.3 620.7 292.7 616.5 270.2C612.3 247.7 569.7 225.3 557.5 202.8C545.3 180.3 563.7 157.7 574.5 135.2C585.3 112.7 588.7 90.3 603.2 67.8C617.7 45.3 643.3 22.7 656.2 11.3L669 0L960 0L960 11.3C960 22.7 960 45.3 960 67.8C960 90.3 960 112.7 960 135.2C960 157.7 960 180.3 960 202.8C960 225.3 960 247.7 960 270.2C960 292.7 960 315.3 960 337.8C960 360.3 960 382.7 960 405.2C960 427.7 960 450.3 960 472.8C960 495.3 960 517.7 960 528.8L960 540Z" fill="#29436d"></path><path d="M685 540L669.8 528.8C654.7 517.7 624.3 495.3 620 472.8C615.7 450.3 637.3 427.7 649.2 405.2C661 382.7 663 360.3 665.2 337.8C667.3 315.3 669.7 292.7 674.8 270.2C680 247.7 688 225.3 683.2 202.8C678.3 180.3 660.7 157.7 643.5 135.2C626.3 112.7 609.7 90.3 605.3 67.8C601 45.3 609 22.7 613 11.3L617 0L960 0L960 11.3C960 22.7 960 45.3 960 67.8C960 90.3 960 112.7 960 135.2C960 157.7 960 180.3 960 202.8C960 225.3 960 247.7 960 270.2C960 292.7 960 315.3 960 337.8C960 360.3 960 382.7 960 405.2C960 427.7 960 450.3 960 472.8C960 495.3 960 517.7 960 528.8L960 540Z" fill="#3f527e"></path><path d="M632 540L648.5 528.8C665 517.7 698 495.3 699.8 472.8C701.7 450.3 672.3 427.7 664.8 405.2C657.3 382.7 671.7 360.3 681.8 337.8C692 315.3 698 292.7 698.5 270.2C699 247.7 694 225.3 697.3 202.8C700.7 180.3 712.3 157.7 707.5 135.2C702.7 112.7 681.3 90.3 667.8 67.8C654.3 45.3 648.7 22.7 645.8 11.3L643 0L960 0L960 11.3C960 22.7 960 45.3 960 67.8C960 90.3 960 112.7 960 135.2C960 157.7 960 180.3 960 202.8C960 225.3 960 247.7 960 270.2C960 292.7 960 315.3 960 337.8C960 360.3 960 382.7 960 405.2C960 427.7 960 450.3 960 472.8C960 495.3 960 517.7 960 528.8L960 540Z" fill="#55618f"></path><path d="M685 540L697.3 528.8C709.7 517.7 734.3 495.3 744.5 472.8C754.7 450.3 750.3 427.7 733.2 405.2C716 382.7 686 360.3 687.7 337.8C689.3 315.3 722.7 292.7 731.3 270.2C740 247.7 724 225.3 711.2 202.8C698.3 180.3 688.7 157.7 687.2 135.2C685.7 112.7 692.3 90.3 707 67.8C721.7 45.3 744.3 22.7 755.7 11.3L767 0L960 0L960 11.3C960 22.7 960 45.3 960 67.8C960 90.3 960 112.7 960 135.2C960 157.7 960 180.3 960 202.8C960 225.3 960 247.7 960 270.2C960 292.7 960 315.3 960 337.8C960 360.3 960 382.7 960 405.2C960 427.7 960 450.3 960 472.8C960 495.3 960 517.7 960 528.8L960 540Z" fill="#6a719f"></path><path d="M707 540L709.5 528.8C712 517.7 717 495.3 721.2 472.8C725.3 450.3 728.7 427.7 739 405.2C749.3 382.7 766.7 360.3 762.8 337.8C759 315.3 734 292.7 722.2 270.2C710.3 247.7 711.7 225.3 711.5 202.8C711.3 180.3 709.7 157.7 710.3 135.2C711 112.7 714 90.3 725.2 67.8C736.3 45.3 755.7 22.7 765.3 11.3L775 0L960 0L960 11.3C960 22.7 960 45.3 960 67.8C960 90.3 960 112.7 960 135.2C960 157.7 960 180.3 960 202.8C960 225.3 960 247.7 960 270.2C960 292.7 960 315.3 960 337.8C960 360.3 960 382.7 960 405.2C960 427.7 960 450.3 960 472.8C960 495.3 960 517.7 960 528.8L960 540Z" fill="#8081b1"></path><path d="M764 540L767.7 528.8C771.3 517.7 778.7 495.3 779.8 472.8C781 450.3 776 427.7 777 405.2C778 382.7 785 360.3 784.5 337.8C784 315.3 776 292.7 775.5 270.2C775 247.7 782 225.3 790.3 202.8C798.7 180.3 808.3 157.7 811.3 135.2C814.3 112.7 810.7 90.3 808.7 67.8C806.7 45.3 806.3 22.7 806.2 11.3L806 0L960 0L960 11.3C960 22.7 960 45.3 960 67.8C960 90.3 960 112.7 960 135.2C960 157.7 960 180.3 960 202.8C960 225.3 960 247.7 960 270.2C960 292.7 960 315.3 960 337.8C960 360.3 960 382.7 960 405.2C960 427.7 960 450.3 960 472.8C960 495.3 960 517.7 960 528.8L960 540Z" fill="#9692c2"></path><path d="M828 540L827.2 528.8C826.3 517.7 824.7 495.3 819.3 472.8C814 450.3 805 427.7 801.5 405.2C798 382.7 800 360.3 802.5 337.8C805 315.3 808 292.7 806.5 270.2C805 247.7 799 225.3 801.5 202.8C804 180.3 815 157.7 823.3 135.2C831.7 112.7 837.3 90.3 833 67.8C828.7 45.3 814.3 22.7 807.2 11.3L800 0L960 0L960 11.3C960 22.7 960 45.3 960 67.8C960 90.3 960 112.7 960 135.2C960 157.7 960 180.3 960 202.8C960 225.3 960 247.7 960 270.2C960 292.7 960 315.3 960 337.8C960 360.3 960 382.7 960 405.2C960 427.7 960 450.3 960 472.8C960 495.3 960 517.7 960 528.8L960 540Z" fill="#aca2d4"></path><path d="M875 540L868.8 528.8C862.7 517.7 850.3 495.3 851 472.8C851.7 450.3 865.3 427.7 870.3 405.2C875.3 382.7 871.7 360.3 870.8 337.8C870 315.3 872 292.7 871.3 270.2C870.7 247.7 867.3 225.3 867.2 202.8C867 180.3 870 157.7 868.2 135.2C866.3 112.7 859.7 90.3 858.8 67.8C858 45.3 863 22.7 865.5 11.3L868 0L960 0L960 11.3C960 22.7 960 45.3 960 67.8C960 90.3 960 112.7 960 135.2C960 157.7 960 180.3 960 202.8C960 225.3 960 247.7 960 270.2C960 292.7 960 315.3 960 337.8C960 360.3 960 382.7 960 405.2C960 427.7 960 450.3 960 472.8C960 495.3 960 517.7 960 528.8L960 540Z" fill="#c2b3e5"></path><path d="M888 540L892.8 528.8C897.7 517.7 907.3 495.3 909.2 472.8C911 450.3 905 427.7 906.8 405.2C908.7 382.7 918.3 360.3 916.5 337.8C914.7 315.3 901.3 292.7 897.5 270.2C893.7 247.7 899.3 225.3 904 202.8C908.7 180.3 912.3 157.7 913.7 135.2C915 112.7 914 90.3 912 67.8C910 45.3 907 22.7 905.5 11.3L904 0L960 0L960 11.3C960 22.7 960 45.3 960 67.8C960 90.3 960 112.7 960 135.2C960 157.7 960 180.3 960 202.8C960 225.3 960 247.7 960 270.2C960 292.7 960 315.3 960 337.8C960 360.3 960 382.7 960 405.2C960 427.7 960 450.3 960 472.8C960 495.3 960 517.7 960 528.8L960 540Z" fill="#d9c5f7"></path></svg>