<svg width="120" height="100" viewBox="0 0 120 100" fill="none" xmlns="http://www.w3.org/2000/svg">
<g id="triangles">
<g id="lightGroup">
<path id="light1" opacity="0.7" d="M38.25 47.8875C39.5833 48.6573 39.5833 50.5818 38.25 51.3516L12 66.507C10.6667 67.2768 9 66.3146 9 64.775L9 34.4641C9 32.9245 10.6667 31.9623 12 32.7321L38.25 47.8875Z" fill="#84D1FD"/>
</g>
<g id="darkGroup">
<path id="dark2" opacity="0.7" d="M38 47.768C39.3333 48.5378 39.3333 50.4623 38 51.2321L11.75 66.3875C10.4167 67.1573 8.75 66.195 8.75 64.6554L8.75 34.3445C8.75 32.8049 10.4167 31.8427 11.75 32.6125L38 47.768Z" fill="#AB7BD1"/>
<path id="dark1" opacity="0.7" d="M52 48.768C53.3333 49.5378 53.3333 51.4623 52 52.2321L25.75 67.3875C24.4167 68.1573 22.75 67.195 22.75 65.6554L22.75 35.3445C22.75 33.8049 24.4167 32.8427 25.75 33.6125L52 48.768Z" fill="#AB7BD1"/>
</g>
</g>
</svg>
