<svg id="visual" viewBox="0 0 960 300" width="960" height="300" xmlns="http://www.w3.org/2000/svg" xmlns:xlink="http://www.w3.org/1999/xlink" version="1.1"><rect x="0" y="0" width="960" height="300" fill="#29203d"></rect><path d="M0 182L22.8 175.8C45.7 169.7 91.3 157.3 137 150C182.7 142.7 228.3 140.3 274 130C319.7 119.7 365.3 101.3 411.2 111.7C457 122 503 161 548.8 171.2C594.7 181.3 640.3 162.7 686 151.5C731.7 140.3 777.3 136.7 823 141.8C868.7 147 914.3 161 937.2 168L960 175L960 301L937.2 301C914.3 301 868.7 301 823 301C777.3 301 731.7 301 686 301C640.3 301 594.7 301 548.8 301C503 301 457 301 411.2 301C365.3 301 319.7 301 274 301C228.3 301 182.7 301 137 301C91.3 301 45.7 301 22.8 301L0 301Z" fill="#d9c5f7"></path><path d="M0 116L22.8 122.3C45.7 128.7 91.3 141.3 137 145.8C182.7 150.3 228.3 146.7 274 154.7C319.7 162.7 365.3 182.3 411.2 189.2C457 196 503 190 548.8 180.8C594.7 171.7 640.3 159.3 686 159.8C731.7 160.3 777.3 173.7 823 184.2C868.7 194.7 914.3 202.3 937.2 206.2L960 210L960 301L937.2 301C914.3 301 868.7 301 823 301C777.3 301 731.7 301 686 301C640.3 301 594.7 301 548.8 301C503 301 457 301 411.2 301C365.3 301 319.7 301 274 301C228.3 301 182.7 301 137 301C91.3 301 45.7 301 22.8 301L0 301Z" fill="#9895be"></path><path d="M0 166L22.8 171.3C45.7 176.7 91.3 187.3 137 200.7C182.7 214 228.3 230 274 232.2C319.7 234.3 365.3 222.7 411.2 215.7C457 208.7 503 206.3 548.8 208C594.7 209.7 640.3 215.3 686 220.5C731.7 225.7 777.3 230.3 823 223C868.7 215.7 914.3 196.3 937.2 186.7L960 177L960 301L937.2 301C914.3 301 868.7 301 823 301C777.3 301 731.7 301 686 301C640.3 301 594.7 301 548.8 301C503 301 457 301 411.2 301C365.3 301 319.7 301 274 301C228.3 301 182.7 301 137 301C91.3 301 45.7 301 22.8 301L0 301Z" fill="#5e6686"></path><path d="M0 224L22.8 220.2C45.7 216.3 91.3 208.7 137 203.8C182.7 199 228.3 197 274 202.5C319.7 208 365.3 221 411.2 227.8C457 234.7 503 235.3 548.8 238.8C594.7 242.3 640.3 248.7 686 251.5C731.7 254.3 777.3 253.7 823 251.2C868.7 248.7 914.3 244.3 937.2 242.2L960 240L960 301L937.2 301C914.3 301 868.7 301 823 301C777.3 301 731.7 301 686 301C640.3 301 594.7 301 548.8 301C503 301 457 301 411.2 301C365.3 301 319.7 301 274 301C228.3 301 182.7 301 137 301C91.3 301 45.7 301 22.8 301L0 301Z" fill="#2c3a51"></path><path d="M0 279L22.8 279.2C45.7 279.3 91.3 279.7 137 279.5C182.7 279.3 228.3 278.7 274 276.8C319.7 275 365.3 272 411.2 265.7C457 259.3 503 249.7 548.8 243.8C594.7 238 640.3 236 686 234.7C731.7 233.3 777.3 232.7 823 237.8C868.7 243 914.3 254 937.2 259.5L960 265L960 301L937.2 301C914.3 301 868.7 301 823 301C777.3 301 731.7 301 686 301C640.3 301 594.7 301 548.8 301C503 301 457 301 411.2 301C365.3 301 319.7 301 274 301C228.3 301 182.7 301 137 301C91.3 301 45.7 301 22.8 301L0 301Z" fill="#001220"></path></svg>